<?xml version="1.0" encoding="utf-8"?>
<!-- Generator: Adobe Illustrator 24.0.0, SVG Export Plug-In . SVG Version: 6.00 Build 0)  -->
<svg version="1.1" id="Layer_1" xmlns="http://www.w3.org/2000/svg" xmlns:xlink="http://www.w3.org/1999/xlink" x="0px" y="0px"
	 viewBox="0 0 500 500" style="enable-background:new 0 0 500 500;" xml:space="preserve">
<style type="text/css">
	.st0{fill:#FFFFFF;stroke:#000000;stroke-width:3;stroke-miterlimit:10;}
	.st1{font-family:'MyriadPro-Regular';}
	.st2{font-size:20px;}
	.st3{fill:#FFFFFF;stroke:#000000;stroke-width:4;stroke-miterlimit:10;}
	.st4{fill:none;stroke:#000000;stroke-width:4;stroke-miterlimit:10;}
	.st5{fill:#F2F2F2;stroke:#000000;stroke-width:8.5;stroke-miterlimit:10;}
	.st6{fill:none;stroke:#000000;stroke-width:5;stroke-miterlimit:10;}
	.st7{fill:none;stroke:#000000;stroke-width:7;stroke-miterlimit:10;}
	.st8{fill:none;stroke:#000000;stroke-width:3;stroke-miterlimit:10;}
	.st9{stroke:#000000;stroke-width:3;stroke-miterlimit:10;}
	.st10{font-size:12.5px;}
	.st11{fill:#FFFFFF;stroke:#FFFFFF;stroke-width:3;stroke-miterlimit:10;}
</style>
<circle class="st0" cx="250" cy="42.75" r="29"/>
<path class="st0" d="M395.93,470.25h-291c-13.53,0-24.5-10.97-24.5-24.5v-330c0-13.53,10.97-24.5,24.5-24.5h291
	c13.53,0,24.5,10.97,24.5,24.5v330C420.43,459.28,409.46,470.25,395.93,470.25z"/>
<text transform="matrix(1 0 0 1 244.8702 48.8701)" class="st1 st2">2</text>
<rect x="213.43" y="167.73" class="st3" width="73.82" height="73.82"/>
<rect x="213.43" y="242.24" class="st4" width="73.82" height="107.32"/>
<path class="st5" d="M276,206.52"/>
<line class="st6" x1="224.34" y1="135.29" x2="224.34" y2="167.07"/>
<line class="st4" x1="169" y1="135.29" x2="230.15" y2="135.29"/>
<rect x="224.37" y="187.55" class="st3" width="51.95" height="24.61"/>
<line class="st4" x1="200.1" y1="349.56" x2="300.58" y2="349.56"/>
<rect x="197.71" y="354.34" class="st7" width="4.78" height="4.78"/>
<rect x="297.51" y="353.66" class="st7" width="4.78" height="4.78"/>
<line class="st8" x1="257.02" y1="135.79" x2="240.02" y2="135.79"/>
<polygon class="st9" points="237.15,135.29 243.71,139.07 243.71,131.5 "/>
<text transform="matrix(1 0 0 1 106.0086 409.4136)" class="st1 st10">The height sensor is found at the very top of the system</text>
<line class="st8" x1="170.5" y1="137.5" x2="178.5" y2="137.5"/>
<line class="st8" x1="269" y1="244.5" x2="283" y2="244.5"/>
<rect x="232.5" y="174.5" class="st9" width="36" height="5"/>
<circle class="st11" cx="250.5" cy="177.5" r="1"/>
</svg>
