<?xml version="1.0" encoding="utf-8"?>
<!-- Generator: Adobe Illustrator 24.0.0, SVG Export Plug-In . SVG Version: 6.00 Build 0)  -->
<svg version="1.1" id="Layer_1" xmlns="http://www.w3.org/2000/svg" xmlns:xlink="http://www.w3.org/1999/xlink" x="0px" y="0px"
	 viewBox="0 0 500 500" style="enable-background:new 0 0 500 500;" xml:space="preserve">
<style type="text/css">
	.st0{fill:#FFFFFF;stroke:#000000;stroke-width:3;stroke-miterlimit:10;}
	.st1{fill:#FFFFFF;stroke:#000000;stroke-width:7;stroke-miterlimit:10;}
	.st2{fill:#FFFFFF;stroke:#000000;stroke-width:5;stroke-miterlimit:10;}
	.st3{fill:#C1272D;}
	.st4{fill:#FFFFFF;}
	.st5{font-family:'MyriadPro-Regular';}
	.st6{font-size:8.7778px;}
	.st7{font-size:12.5px;}
	.st8{fill:none;stroke:#000000;stroke-width:7;stroke-miterlimit:10;}
	.st9{stroke:#000000;stroke-miterlimit:10;}
	.st10{font-size:20px;}
</style>
<circle class="st0" cx="250.43" cy="43.5" r="29"/>
<path class="st0" d="M395.93,469.5h-291c-13.53,0-24.5-10.97-24.5-24.5V115c0-13.53,10.97-24.5,24.5-24.5h291
	c13.53,0,24.5,10.97,24.5,24.5v330C420.43,458.53,409.46,469.5,395.93,469.5z"/>
<rect x="151.68" y="132" class="st1" width="197.5" height="197.5"/>
<rect x="175.38" y="174.13" class="st2" width="150.1" height="93.04"/>
<path class="st3" d="M258.77,247.43h-16.68c-4.61,0-8.34-3.73-8.34-8.34v0c0-4.61,3.73-8.34,8.34-8.34h16.68
	c4.61,0,8.34,3.73,8.34,8.34v0C267.11,243.69,263.37,247.43,258.77,247.43z"/>
<text transform="matrix(1 0 0 1 243.9198 241.6592)" class="st4 st5 st6">Get</text>
<text transform="matrix(1 0 0 1 138.6769 426.1426)" class="st5 st7">Press Get to initialize Height Measurement.</text>
<line class="st8" x1="151.93" y1="325" x2="151.93" y2="381"/>
<line class="st8" x1="348.93" y1="327" x2="348.93" y2="379"/>
<line class="st8" x1="249.93" y1="99" x2="249.93" y2="132"/>
<path class="st9" d="M249.66,294.99L249.66,294.99c-2.5,0-4.52-2.03-4.52-4.52v-40.53c0-2.5,2.03-4.52,4.52-4.52h0
	c2.5,0,4.52,2.03,4.52,4.52v40.53C254.18,292.97,252.16,294.99,249.66,294.99z"/>
<path class="st9" d="M258.71,305.21L258.71,305.21c-2.5,0-4.52-2.03-4.52-4.52l0-33.33c0-2.5,2.03-4.52,4.52-4.52l0,0
	c2.5,0,4.52,2.03,4.52,4.52v33.33C263.23,303.19,261.2,305.21,258.71,305.21z"/>
<path class="st9" d="M265.93,304.75L265.93,304.75c-2.5-0.09-4.44-2.19-4.35-4.69l1.14-30.01c0.09-2.5,2.19-4.44,4.69-4.35l0,0
	c2.5,0.09,4.44,2.19,4.35,4.69l-1.14,30.01C270.52,302.9,268.42,304.84,265.93,304.75z"/>
<path class="st9" d="M272.58,308.67L272.58,308.67c-2.49-0.21-4.34-2.39-4.13-4.88l2.39-28.56c0.21-2.49,2.39-4.34,4.88-4.13l0,0
	c2.49,0.21,4.34,2.39,4.13,4.88l-2.39,28.56C277.26,307.03,275.07,308.88,272.58,308.67z"/>
<path class="st9" d="M267.35,312.5h-0.4c-13.27,0-24.03-10.76-24.03-24.03v-0.5c0-6.92,5.61-12.52,12.52-12.52h11.9
	c6.92,0,12.52,5.61,12.52,12.52v12C279.88,306.89,274.27,312.5,267.35,312.5z"/>
<path class="st9" d="M256.6,307.76L256.6,307.76c-2.16,1.25-4.93,0.51-6.18-1.66l-16.09-27.88c-1.25-2.16-0.51-4.93,1.66-6.18l0,0
	c2.16-1.25,4.93-0.51,6.18,1.66l16.09,27.88C259.5,303.74,258.76,306.51,256.6,307.76z"/>
<text transform="matrix(1 0 0 1 246.0798 48.5846)" class="st5 st10">1</text>
</svg>
