<?xml version="1.0" encoding="utf-8"?>
<!-- Generator: Adobe Illustrator 24.0.0, SVG Export Plug-In . SVG Version: 6.00 Build 0)  -->
<svg version="1.1" id="Layer_1" xmlns="http://www.w3.org/2000/svg" xmlns:xlink="http://www.w3.org/1999/xlink" x="0px" y="0px"
	 viewBox="0 0 500 500" style="enable-background:new 0 0 500 500;" xml:space="preserve">
<style type="text/css">
	.st0{fill:#FFFFFF;stroke:#000000;stroke-width:3;stroke-miterlimit:10;}
	.st1{font-family:'MyriadPro-Regular';}
	.st2{font-size:20px;}
	.st3{fill:#F2F2F2;stroke:#000000;stroke-width:8.5;stroke-miterlimit:10;}
	.st4{fill:#FFFFFF;stroke:#000000;stroke-width:5;stroke-miterlimit:10;}
	.st5{fill:none;stroke:#000000;stroke-width:5;stroke-miterlimit:10;}
	.st6{fill:none;stroke:#000000;stroke-width:4;stroke-miterlimit:10;}
	.st7{stroke:#000000;stroke-miterlimit:10;}
	.st8{font-size:12.5px;}
	.st9{fill:none;stroke:#000000;stroke-width:8.5;stroke-miterlimit:10;}
	.st10{stroke:#000000;stroke-width:3;stroke-miterlimit:10;}
</style>
<circle class="st0" cx="250" cy="50.75" r="29"/>
<path class="st0" d="M396,478.5H105c-13.53,0-24.5-10.97-24.5-24.5V124c0-13.53,10.97-24.5,24.5-24.5h291
	c13.53,0,24.5,10.97,24.5,24.5v330C420.5,467.53,409.53,478.5,396,478.5z"/>
<text transform="matrix(1 0 0 1 244.8702 56.8701)" class="st1 st2">3</text>
<path class="st3" d="M345,221.76"/>
<rect x="128.96" y="176.82" class="st4" width="65.66" height="65.66"/>
<rect x="128.96" y="243.09" class="st5" width="65.66" height="95.45"/>
<path class="st3" d="M328,226.11"/>
<line class="st6" x1="161.79" y1="148.86" x2="161.79" y2="177.13"/>
<line class="st5" x1="156.01" y1="145.86" x2="166.96" y2="145.86"/>
<rect x="124.98" y="342.8" class="st5" width="4.26" height="4.26"/>
<rect x="192.74" y="342.19" class="st5" width="4.26" height="4.26"/>
<circle class="st7" cx="161.06" cy="180.78" r="16.92"/>
<path class="st7" d="M148.3,355L148.3,355c-5.25,0-9.5-4.25-9.5-9.5V209.57c0-5.25,4.25-9.5,9.5-9.5h0c5.25,0,9.5,4.25,9.5,9.5
	V345.5C157.8,350.75,153.55,355,148.3,355z"/>
<path class="st7" d="M175.01,355L175.01,355c-5.25,0-9.5-4.25-9.5-9.5V209.57c0-5.25,4.25-9.5,9.5-9.5h0c5.25,0,9.5,4.25,9.5,9.5
	V345.5C184.51,350.75,180.26,355,175.01,355z"/>
<path class="st7" d="M161.06,276.05L161.06,276.05c-6.07,0-10.98-4.92-10.98-10.98v-54.02c0-6.07,4.92-10.98,10.98-10.98h0
	c6.07,0,10.98,4.92,10.98,10.98v54.02C172.05,271.13,167.13,276.05,161.06,276.05z"/>
<path class="st7" d="M123.58,268.1L123.58,268.1c4.56,0.53,8.69-2.73,9.22-7.29l5.97-51.3c0.53-4.56-2.73-8.69-7.29-9.22l0,0
	c-4.56-0.53-8.69,2.73-9.22,7.29l-5.97,51.3C115.75,263.45,119.02,267.57,123.58,268.1z"/>
<path class="st7" d="M196.98,208.38L196.98,208.38c0-4.59-3.72-8.31-8.31-8.31h-56.99c-4.59,0-8.31,3.72-8.31,8.31v0
	c0,4.59,3.72,8.31,8.31,8.31h56.99C193.26,216.69,196.98,212.97,196.98,208.38z"/>
<path class="st7" d="M199.05,268.11L199.05,268.11c4.56-0.53,7.83-4.65,7.3-9.21l-5.92-51.3c-0.53-4.56-4.65-7.83-9.21-7.3h0
	c-4.56,0.53-7.83,4.65-7.3,9.21l5.92,51.3C190.37,265.36,194.49,268.63,199.05,268.11z"/>
<text transform="matrix(1 0 0 1 108.0085 418.9542)"><tspan x="0" y="0" class="st1 st8">Stand straight and still on the left side of the system. Align </tspan><tspan x="0" y="15" class="st1 st8">your head on the sensor above. Once the system beeps,</tspan><tspan x="0" y="30" class="st1 st8">It means your’e height has been measured.</tspan></text>
<line class="st9" x1="249.5" y1="209.5" x2="299" y2="209.5"/>
<line class="st9" x1="295.5" y1="341.5" x2="295.5" y2="206.5"/>
<line class="st9" x1="257.5" y1="344.5" x2="299.5" y2="344.5"/>
<circle class="st7" cx="359.44" cy="252.46" r="34.99"/>
<line class="st9" x1="279.5" y1="139.5" x2="279.5" y2="206"/>
<line class="st9" x1="272" y1="136.5" x2="373" y2="136.5"/>
<path class="st10" d="M379.44,349.5H342.2c-6.46,0-11.7-5.24-11.7-11.7v-30.6c0-6.46,5.24-11.7,11.7-11.7h37.23
	c4.93,0,8.94,3.94,9.06,8.84c0,0.15,0.02,0.3,0.05,0.44l7.88,37.35c0.05,0.24,0.09,0.5,0.05,0.74
	C395.89,347.61,384.31,349.5,379.44,349.5z"/>
<rect x="348.5" y="139.5" class="st10" width="21" height="6"/>
<line class="st5" x1="359.5" y1="151.5" x2="359.5" y2="163.5"/>
<line class="st5" x1="359.5" y1="173" x2="359.5" y2="185"/>
<line class="st5" x1="359.5" y1="194" x2="359.5" y2="206"/>
</svg>
