<?xml version="1.0" encoding="utf-8"?>
<!-- Generator: Adobe Illustrator 24.0.0, SVG Export Plug-In . SVG Version: 6.00 Build 0)  -->
<svg version="1.1" id="Layer_1" xmlns="http://www.w3.org/2000/svg" xmlns:xlink="http://www.w3.org/1999/xlink" x="0px" y="0px"
	 viewBox="0 0 500 500" style="enable-background:new 0 0 500 500;" xml:space="preserve">
<style type="text/css">
	.st0{fill:#FFFFFF;stroke:#000000;stroke-width:3;stroke-miterlimit:10;}
	.st1{fill:#FFFFFF;stroke:#000000;stroke-width:7;stroke-miterlimit:10;}
	.st2{fill:#FFFFFF;stroke:#000000;stroke-width:5;stroke-miterlimit:10;}
	.st3{fill:#C1272D;}
	.st4{fill:#FFFFFF;}
	.st5{font-family:'MyriadPro-Regular';}
	.st6{font-size:8.7778px;}
	.st7{font-size:12.5px;}
	.st8{fill:none;stroke:#000000;stroke-width:7;stroke-miterlimit:10;}
	.st9{font-size:20px;}
	.st10{fill:#030104;}
</style>
<circle class="st0" cx="250" cy="43.5" r="29"/>
<path class="st0" d="M395.5,469.5h-291C90.97,469.5,80,458.53,80,445V115c0-13.53,10.97-24.5,24.5-24.5h291
	c13.53,0,24.5,10.97,24.5,24.5v330C420,458.53,409.03,469.5,395.5,469.5z"/>
<rect x="151.25" y="132" class="st1" width="197.5" height="197.5"/>
<rect x="174.95" y="174.13" class="st2" width="150.1" height="93.04"/>
<path class="st3" d="M258.34,247.43h-16.68c-4.61,0-8.34-3.73-8.34-8.34v0c0-4.61,3.73-8.34,8.34-8.34h16.68
	c4.61,0,8.34,3.73,8.34,8.34v0C266.68,243.69,262.94,247.43,258.34,247.43z"/>
<text transform="matrix(1 0 0 1 243.4912 241.6592)" class="st4 st5 st6">Get</text>
<text transform="matrix(1 0 0 1 125.7524 426.1426)" class="st5 st7">Press Get to initialize Temperature Measurement.</text>
<line class="st8" x1="151.5" y1="325" x2="151.5" y2="381"/>
<line class="st8" x1="348.5" y1="327" x2="348.5" y2="379"/>
<line class="st8" x1="249.5" y1="99" x2="249.5" y2="132"/>
<text transform="matrix(1 0 0 1 245.6512 48.5846)" class="st5 st9">1</text>
<g>
	<path class="st10" d="M248.39,244.54c-0.23-0.79-0.46-1.59-0.63-2.35c-1.11-0.66-1.87-1.85-1.87-3.24c0-2.08,1.69-3.77,3.77-3.77
		c2.08,0,3.77,1.69,3.77,3.77c0,0.29-0.04,0.56-0.1,0.83c0.36,0.79,0.65,1.69,0.91,2.6c0.72-0.96,1.16-2.14,1.16-3.43
		c0-3.17-2.57-5.74-5.74-5.74c-3.17,0-5.74,2.57-5.74,5.74C243.92,241.68,245.83,243.96,248.39,244.54z"/>
	<path class="st10" d="M244.42,258.13c1.41-1.53,3-0.93,5.13-0.61c1.83,0.28,3.62-0.23,3.5-1.22c-0.19-1.6-0.46-2.31-1.06-4.38
		c-0.48-1.64-1.4-4.61-2.23-7.44c-1.12-3.79-1.44-5.55,0.05-5.99c1.6-0.47,2.52,1.81,3.36,4.97c0.95,3.6,1.45,5.18,1.73,5.1
		c0.49-0.14-0.18-1.68,1.11-2.06c1.61-0.47,1.92,0.79,2.37,0.66c0.45-0.14,0.3-1.41,1.58-1.79c1.29-0.37,1.94,1.22,2.47,1.06
		c0.53-0.16,0.52-0.73,1.31-0.96c0.8-0.24,3.8,1.11,5.51,6.97c2.15,7.37-0.27,8.75,0.46,11.24l-9.62,3.66
		c-0.78-1.87-3.19-2.01-5.32-3.2c-2.15-1.21-3.61-3.57-9.21-3.45C243.45,260.75,243.55,259.07,244.42,258.13z"/>
</g>
</svg>
