<?xml version="1.0" encoding="utf-8"?>
<!-- Generator: Adobe Illustrator 24.0.0, SVG Export Plug-In . SVG Version: 6.00 Build 0)  -->
<svg version="1.1" id="Layer_1" xmlns="http://www.w3.org/2000/svg" xmlns:xlink="http://www.w3.org/1999/xlink" x="0px" y="0px"
	 viewBox="0 0 500 500" style="enable-background:new 0 0 500 500;" xml:space="preserve">
<style type="text/css">
	.st0{fill:#FFFFFF;stroke:#000000;stroke-width:3;stroke-miterlimit:10;}
	.st1{font-family:'MyriadPro-Regular';}
	.st2{font-size:20px;}
	.st3{fill:none;stroke:#000000;stroke-width:4;stroke-miterlimit:10;}
	.st4{font-size:12px;}
</style>
<circle class="st0" cx="250" cy="50.75" r="29"/>
<path class="st0" d="M395.93,478.25h-291c-13.53,0-24.5-10.97-24.5-24.5v-330c0-13.53,10.97-24.5,24.5-24.5h291
	c13.53,0,24.5,10.97,24.5,24.5v330C420.43,467.28,409.46,478.25,395.93,478.25z"/>
<text transform="matrix(1 0 0 1 244.8699 58.8703)" class="st1 st2">3</text>
<path class="st3" d="M112.5,341.5"/>
<polyline class="st3" points="112.5,168.5 240.5,168.5 240.5,341.5 "/>
<rect x="240.5" y="199.5" class="st0" width="4" height="16"/>
<path class="st3" d="M156,168"/>
<path class="st3" d="M156,124"/>
<g>
	<path d="M257.43,262.66l9.05,1.37c1.69,0.26,3.1,1.46,3.61,3.1l4,12.85c0.73,2.36,3.24,3.68,5.6,2.94l21.11-6.57
		c2.36-0.73,4.87,0.59,5.6,2.95l4.64,14.91c0.45,1.43,1.58,2.55,3.03,2.97c1.44,0.42,3,0.08,4.14-0.89l35.78-30.3
		c1.37-1.16,1.91-3.03,1.38-4.75l-5.47-17.59c8.22-12.57,10.96-28.57,6.16-44.02c-8.55-27.48-37.76-42.83-65.24-34.28
		c-27.48,8.55-42.84,37.76-34.29,65.24c0.21,0.66,0.43,1.31,0.66,1.95l-3.51,25.07C253.32,260.04,255,262.29,257.43,262.66z"/>
</g>
<text transform="matrix(1 0 0 1 128.2556 426.4287)" class="st1 st4">Align your forehead to the hole above the screen</text>
</svg>
