<?xml version="1.0" encoding="utf-8"?>
<!-- Generator: Adobe Illustrator 24.0.0, SVG Export Plug-In . SVG Version: 6.00 Build 0)  -->
<svg version="1.1" id="Layer_1" xmlns="http://www.w3.org/2000/svg" xmlns:xlink="http://www.w3.org/1999/xlink" x="0px" y="0px"
	 viewBox="0 0 500 500" style="enable-background:new 0 0 500 500;" xml:space="preserve">
<style type="text/css">
	.st0{fill:#FFFFFF;stroke:#000000;stroke-width:3;stroke-miterlimit:10;}
	.st1{font-family:'MyriadPro-Regular';}
	.st2{font-size:20px;}
	.st3{fill:#F2F2F2;stroke:#000000;stroke-width:8.5;stroke-miterlimit:10;}
	.st4{font-size:12px;}
	.st5{stroke:#000000;stroke-width:7;stroke-miterlimit:10;}
	.st6{fill:#FFFFFF;stroke:#000000;stroke-width:4;stroke-miterlimit:10;}
</style>
<circle class="st0" cx="250.43" cy="46" r="29"/>
<path class="st0" d="M395.93,467h-291c-13.53,0-24.5-10.97-24.5-24.5v-330c0-13.53,10.97-24.5,24.5-24.5h291
	c13.53,0,24.5,10.97,24.5,24.5v330C420.43,456.03,409.46,467,395.93,467z"/>
<text transform="matrix(1 0 0 1 245.2989 51.0846)" class="st1 st2">3</text>
<path class="st3" d="M235.43,207.7"/>
<text transform="matrix(1 0 0 1 137.0282 403.7979)"><tspan x="0" y="0" class="st1 st4">Gently step and align your footings on the </tspan><tspan x="0" y="14.4" class="st1 st4">weighing scale.  When done the system </tspan><tspan x="0" y="28.8" class="st1 st4">will sound a beep. </tspan></text>
<rect x="263.5" y="328.5" class="st5" width="111" height="4"/>
<g>
	<path d="M287,308.53c14.38-1.93,26.94-7.55,35.57-12.4c11.47-6.45,18.51-12.84,18.8-13.11c0.58-0.53,0.88-1.29,0.82-2.07
		c-2.15-27.71-6.94-85.93-8.04-99.23h0.42c1.4,0,2.53-1.13,2.53-2.53s-1.13-2.53-2.53-2.53h-3.17c-0.71,0-1.38,0.3-1.86,0.82
		s-0.72,1.22-0.66,1.93c0.06,0.69,5.68,68.87,8.16,100.68c-2.22,1.88-8.37,6.82-17.07,11.7c-10.07,5.65-25.73,12.38-43.16,12.38
		c-5.41,0-9.8,4.4-9.8,9.8c0,5.41,4.4,9.8,9.8,9.8c1,0,1.98,0,2.94-0.01c1.4-0.01,2.52-1.16,2.51-2.56
		c-0.01-1.39-1.14-2.51-2.53-2.51c-0.01,0-0.02,0-0.02,0c-0.94,0.01-1.91,0.01-2.89,0.01c-2.61,0-4.74-2.12-4.74-4.74
		s2.12-4.74,4.74-4.74c1.73,0,3.44-0.06,5.12-0.18l-0.01,1.33c-0.01,1.4,1.12,2.54,2.52,2.55c0.01,0,0.01,0,0.02,0
		c1.39,0,2.52-1.12,2.53-2.52L287,308.53z"/>
	<path d="M376.79,179.49c0.08-0.72-0.14-1.44-0.62-1.98c-0.48-0.54-1.17-0.85-1.89-0.85h-30.2c-1.4,0-2.53,1.13-2.53,2.53
		s1.13,2.53,2.53,2.53h27.35c-1.44,12.56-7.3,64.44-10.56,106.11c-0.18,2.24,0.79,5.68,2.39,11.08c1,3.37,2.14,7.18,2.14,8.75
		c0,6.09-4.95,11.04-11.04,11.04c-3.44,0-4.91-0.55-7.14-1.38c-2.33-0.87-5.22-1.94-11.02-2.64c-6.64-0.8-12.13-0.01-19.73,1.09
		c-6.72,0.97-15.07,2.18-27.35,2.68c-1.4,0.06-2.49,1.24-2.43,2.64c0.06,1.4,1.25,2.48,2.64,2.43c12.53-0.52,21.03-1.75,27.86-2.73
		c7.21-1.04,12.42-1.79,18.4-1.08c5.2,0.62,7.67,1.55,9.86,2.36c2.35,0.87,4.56,1.7,8.91,1.7c8.88,0,16.11-7.23,16.11-16.11
		c0-2.3-1.09-5.96-2.35-10.2c-0.98-3.28-2.31-7.77-2.2-9.24C369.63,240.8,376.72,180.09,376.79,179.49z"/>
</g>
<path class="st6" d="M222.79,300h-87.57c-8.95,0-16.21-7.26-16.21-16.21v-87.57c0-8.95,7.26-16.21,16.21-16.21h87.57
	c8.95,0,16.21,7.26,16.21,16.21v87.57C239,292.74,231.74,300,222.79,300z"/>
<g>
	<g>
		<path d="M152.31,215.94c1.49,0,2.69-1.45,2.69-3.23c0-1.78-1.21-3.23-2.69-3.23s-2.69,1.45-2.69,3.23
			C149.61,214.49,150.82,215.94,152.31,215.94z"/>
		<path d="M158.58,212.89c1.49,0,2.69-1.45,2.69-3.23c0-1.78-1.21-3.23-2.69-3.23c-1.49,0-2.69,1.45-2.69,3.23
			C155.88,211.44,157.09,212.89,158.58,212.89z"/>
		<path d="M168.42,214.61c-2.34,0-5.27,0.97-9.49,3.14c-1.21,0.62-2.29,1.15-3.24,1.62c-4.02,1.98-5.46,2.76-6.51,4.59l-0.03,0.06
			c-1.24,2.18-3.32,5.82-2.27,10.93c0.36,1.77,0.96,3.4,1.72,5.47c1.66,4.53,3.94,10.73,6.07,24.26c1.45,9.23,4.84,14.32,9.56,14.32
			c0.84,0,1.44-0.18,1.53-0.21c0.09-0.04,0.11-0.04,0.2-0.06c0.48-0.14,8.09-2.52,6.61-16.18c-1.82-16.81-0.07-22.55,2.59-28.83
			c0.25-0.58,0.53-1.17,0.83-1.79c1.94-4.02,3.94-8.17-1.28-14.04C172.69,215.62,170.75,214.61,168.42,214.61z"/>
		<path d="M168.42,210.44c2.52,0,4.74,0.74,6.83,2.29c1.06-1.34,1.7-3.11,1.7-5.06c0-4.14-2.91-7.51-6.5-7.51
			c-3.58,0-6.5,3.37-6.5,7.51c0,1.17,0.24,2.29,0.65,3.28C165.98,210.61,167.23,210.44,168.42,210.44z"/>
		<path d="M149.79,217.76c0-0.03,0-0.06,0-0.09c0-1.78-1.21-3.23-2.69-3.23c-1.49,0-2.69,1.45-2.69,3.23c0,1.45,0.8,2.68,1.9,3.09
			C147.24,219.52,148.37,218.62,149.79,217.76z"/>
		<path d="M206.28,215.94c1.49,0,2.69-1.45,2.69-3.23c0-1.78-1.21-3.23-2.69-3.23s-2.69,1.45-2.69,3.23
			C203.58,214.49,204.79,215.94,206.28,215.94z"/>
		<path d="M200.01,212.89c1.49,0,2.69-1.45,2.69-3.23c0-1.78-1.21-3.23-2.69-3.23c-1.49,0-2.69,1.45-2.69,3.23
			C197.31,211.44,198.52,212.89,200.01,212.89z"/>
		<path d="M209.4,223.97c-1.05-1.83-2.49-2.61-6.51-4.59c-0.95-0.47-2.03-1-3.24-1.62c-4.23-2.17-7.16-3.14-9.49-3.14
			c-2.33,0-4.26,1.01-6.28,3.28c-5.22,5.87-3.22,10.02-1.28,14.04c0.3,0.62,0.58,1.21,0.83,1.79c2.66,6.27,4.41,12.01,2.59,28.83
			c-1.48,13.67,6.13,16.05,6.61,16.18c0.1,0.02,0.11,0.03,0.2,0.06c0.09,0.03,0.68,0.21,1.53,0.21c4.72,0,8.11-5.08,9.56-14.32
			c2.12-13.53,4.4-19.73,6.07-24.26c0.76-2.06,1.36-3.69,1.72-5.47c1.05-5.11-1.03-8.75-2.27-10.93L209.4,223.97z"/>
		<path d="M190.16,210.44c1.19,0,2.44,0.16,3.8,0.51c0.42-0.99,0.65-2.1,0.65-3.28c0-4.14-2.91-7.51-6.5-7.51
			c-3.58,0-6.5,3.37-6.5,7.51c0,1.95,0.65,3.72,1.7,5.06C185.42,211.18,187.65,210.44,190.16,210.44z"/>
		<path d="M211.48,214.44c-1.49,0-2.69,1.45-2.69,3.23c0,0.03,0,0.06,0,0.09c1.42,0.86,2.55,1.76,3.48,3c1.1-0.41,1.9-1.64,1.9-3.09
			C214.18,215.89,212.97,214.44,211.48,214.44z"/>
	</g>
</g>
</svg>
