<?xml version="1.0" encoding="utf-8"?>
<!-- Generator: Adobe Illustrator 24.0.0, SVG Export Plug-In . SVG Version: 6.00 Build 0)  -->
<svg version="1.1" id="Layer_1" xmlns="http://www.w3.org/2000/svg" xmlns:xlink="http://www.w3.org/1999/xlink" x="0px" y="0px"
	 viewBox="0 0 500 500" style="enable-background:new 0 0 500 500;" xml:space="preserve">
<style type="text/css">
	.st0{fill:#FFFFFF;stroke:#000000;stroke-width:3;stroke-miterlimit:10;}
	.st1{font-family:'MyriadPro-Regular';}
	.st2{font-size:20px;}
	.st3{fill:#FFFFFF;stroke:#000000;stroke-width:4;stroke-miterlimit:10;}
	.st4{fill:none;stroke:#000000;stroke-width:4;stroke-miterlimit:10;}
	.st5{fill:#F2F2F2;stroke:#000000;stroke-width:8.5;stroke-miterlimit:10;}
	.st6{font-size:12px;}
	.st7{fill:none;stroke:#000000;stroke-width:3;stroke-miterlimit:10;}
	.st8{stroke:#000000;stroke-width:3;stroke-miterlimit:10;}
	.st9{stroke:#000000;stroke-width:2;stroke-miterlimit:10;}
	.st10{fill:#FFFFFF;stroke:#000000;stroke-miterlimit:10;}
</style>
<circle class="st0" cx="250" cy="51.5" r="29"/>
<path class="st0" d="M395.5,472.5h-291C90.97,472.5,80,461.53,80,448V118c0-13.53,10.97-24.5,24.5-24.5h291
	c13.53,0,24.5,10.97,24.5,24.5v330C420,461.53,409.03,472.5,395.5,472.5z"/>
<text transform="matrix(1 0 0 1 244.8703 56.5846)" class="st1 st2">2</text>
<rect x="217.84" y="163.85" class="st3" width="65.73" height="65.73"/>
<rect x="217.84" y="230.19" class="st4" width="65.73" height="95.56"/>
<path class="st5" d="M235,213.2"/>
<line class="st4" x1="228" y1="136.86" x2="228" y2="165.16"/>
<line class="st4" x1="191" y1="136" x2="230.88" y2="136"/>
<rect x="227.58" y="181.5" class="st3" width="46.26" height="21.91"/>
<rect x="215.84" y="327.01" class="st4" width="4.26" height="4.26"/>
<rect x="281.7" y="327.4" class="st4" width="4.26" height="4.26"/>
<text transform="matrix(1 0 0 1 119.0339 409.2979)"><tspan x="0" y="0" class="st1 st6">At the left side the weighing scale found at the  </tspan><tspan x="0" y="14.4" class="st1 st6">base of the system.</tspan></text>
<line class="st7" x1="123.86" y1="329.31" x2="140.86" y2="329.31"/>
<polygon class="st8" points="143.73,329.81 137.18,326.02 137.18,333.6 "/>
<rect x="161" y="327" class="st9" width="50" height="5"/>
<rect x="236.5" y="172.5" class="st0" width="31" height="3"/>
<circle class="st10" cx="251.5" cy="174.5" r="2"/>
<line class="st4" x1="260" y1="234" x2="281" y2="234"/>
<line class="st7" x1="192" y1="138.5" x2="197" y2="138.5"/>
</svg>
